<?xml version="1.0" encoding="UTF-8"?>
<svg id="Layer_1" data-name="Layer 1" xmlns="http://www.w3.org/2000/svg" xmlns:xlink="http://www.w3.org/1999/xlink" viewBox="0 0 632.87 632.87">
  <defs>
    <style>
      .cls-1 {
        fill: #8e68ad;
      }

      .cls-1, .cls-2, .cls-3, .cls-4, .cls-5 {
        stroke-width: 0px;
      }

      .cls-2, .cls-6 {
        fill: #fff;
      }

      .cls-3 {
        fill: url(#radial-gradient);
      }

      .cls-6 {
        font-family: TimesNewRomanPS-ItalicMT, 'Times New Roman';
        font-size: 185.72px;
        font-style: italic;
      }

      .cls-4 {
        fill: #249fda;
      }

      .cls-5 {
        fill: #0e1012;
      }
    </style>
    <radialGradient id="radial-gradient" cx="-832.06" cy="897.97" fx="-832.06" fy="897.97" r="7.23" gradientTransform="translate(-37605.53 179298.17) rotate(18.96) scale(24.94 -202.29) skewX(-4.45)" gradientUnits="userSpaceOnUse">
      <stop offset=".07" stop-color="#8e68ad"/>
      <stop offset=".34" stop-color="#5b83c3"/>
      <stop offset=".67" stop-color="#289fda"/>
    </radialGradient>
  </defs>
  <circle class="cls-5" cx="316.43" cy="316.43" r="316.43"/>
  <g>
    <path class="cls-1" d="M219.03,511.52c-14.1-.26-27.61-3.03-40.55-8.52-2.85-1.21-5.29-1.1-7.99.38-7.52,4.12-15.15,8.07-22.72,12.1-2.29,1.22-4.53,1.21-6.6-.36-2.05-1.56-2.7-3.7-2.22-6.24.37-1.91.56-3.86.86-5.78,1.08-6.93,2.11-13.87,3.3-20.78.41-2.39-.25-4.23-1.79-5.98-10.31-11.71-17.78-25-22.18-40-16.78-57.26,18.06-116.95,76.19-130.57,55.14-12.92,110.38,20.38,124.75,75.19,14.76,56.29-20.32,114.33-77.18,127.66-2.73.64-5.49,1.21-8.27,1.52-5.19.58-10.4.94-15.6,1.39Z"/>
    <path class="cls-4" d="M489.87,295.82c-.38-2.41.29-4.35,1.89-6.23,21.35-24.83,29.74-53.45,24.82-85.86-2.85-18.73-10.35-35.56-22.78-49.77-27.07-30.96-61.15-42.95-101.57-35.14-47.75,9.23-83.04,53.15-83.09,101.99.89,7.11,1.28,14.32,2.75,21.31,9.18,43.78,45.51,76.78,90.12,81.9,18.26,2.1,35.94-.49,52.88-7.73,2.5-1.07,4.72-1.01,7.12.3,7.54,4.09,15.14,8.07,22.74,12.06.88.46,1.85.91,2.83,1.03,4.5.55,7.2-3.1,6.35-8.22-1.42-8.54-2.69-17.1-4.05-25.64ZM457.43,271.91c-3.54,1.55-7.09-.13-8.79-4.2-3.64-8.71-7.29-17.4-10.87-26.13-.59-1.45-1.34-1.97-2.93-1.95-7.03.09-14.06.04-21.09.04s-14.06.04-21.09-.03c-1.48-.01-2.16.48-2.72,1.85-3.6,8.8-7.28,17.57-10.97,26.34-1.39,3.3-4.15,5.03-7.09,4.56-4.51-.71-6.77-4.94-4.94-9.38,2.7-6.56,5.44-13.11,8.18-19.65,9.46-22.49,18.92-44.98,28.39-67.48,3.58-8.49,13.81-10.14,19.21-3.06.75.98,1.29,2.13,1.77,3.28,12.05,28.84,24.08,57.69,36.11,86.54,1.68,4.02.42,7.7-3.17,9.26Z"/>
    <path class="cls-2" d="M460.6,262.64c-12.03-28.85-24.06-57.7-36.11-86.54-.48-1.14-1.03-2.3-1.77-3.28-5.4-7.08-15.63-5.44-19.21,3.06-9.47,22.49-18.93,44.98-28.39,67.48-2.75,6.54-5.49,13.08-8.18,19.65-1.83,4.44.43,8.67,4.94,9.38,2.94.47,5.7-1.26,7.09-4.56,3.69-8.77,7.38-17.54,10.97-26.34.56-1.37,1.24-1.87,2.72-1.85,7.03.07,14.06.03,21.09.03s14.06.05,21.09-.04c1.59-.02,2.34.51,2.93,1.95,3.57,8.73,7.23,17.42,10.87,26.13,1.7,4.06,5.25,5.74,8.79,4.2,3.59-1.57,4.85-5.25,3.17-9.26ZM396.27,226.49c5.83-13.9,11.61-27.66,17.64-42.03,5.98,14.31,11.71,28.05,17.56,42.03h-35.2Z"/>
    <path class="cls-2" d="M354.72,462.24c8.99-1.01,17.38-3.04,25.38-6.36,36.11-15,58.39-41.66,66.43-79.94,1.37-6.52,1.37-13.33,1.96-20.01.28-3.09,2.39-5.54,5.3-6,3.01-.48,5.98,1.03,7.03,3.83.45,1.2.53,2.59.52,3.89-.23,25.53-7.85,48.69-22.99,69.2-19.17,25.97-44.84,41.74-76.59,47.58-1.51.28-3.04.48-4.32.69,2.44,2.65,4.87,5.35,7.38,7.98,2.22,2.32,2.98,5.12,1.91,7.66-1.74,4.13-6.95,5.45-10.32,2.31-6.63-6.17-13.09-12.52-19.54-18.89-2.18-2.15-2.41-5.57-.63-8.22,4.69-7,9.45-13.96,14.29-20.87,2.15-3.06,5.96-3.67,8.91-1.7,2.96,1.97,3.84,5.72,1.9,8.88-1.63,2.66-3.5,5.17-5.25,7.76-.42.62-.8,1.27-1.38,2.2Z"/>
    <path class="cls-4" d="M431.47,226.49h-35.2c5.83-13.9,11.61-27.66,17.64-42.03,5.98,14.31,11.71,28.05,17.56,42.03Z"/>
    <path class="cls-3" d="M293.44,206.98c-45.4,2.83-81.6,39.61-84.39,85.73h-.34c-2.78-46.13-38.98-82.9-84.39-85.73v-.34c45.4-2.83,81.6-39.6,84.39-85.73h.34c2.79,46.12,38.98,82.9,84.39,85.73v.34Z"/>
    <text class="cls-6" transform="translate(180.26 447.65)"><tspan x="0" y="0">x</tspan></text>
  </g>
</svg>